<svg xmlns="http://www.w3.org/2000/svg" xmlns:svg="http://www.w3.org/2000/svg" id="svg2" width="16" height="16" version="1.1"><defs id="defs4"><linearGradient id="linearGradient4976"><stop id="stop4978" offset="0" stop-color="#000" stop-opacity="0"/><stop id="stop3908" offset=".26" stop-color="#000" stop-opacity="0"/><stop id="stop3906" offset=".712" stop-color="#000" stop-opacity=".075"/><stop id="stop4980" offset="1" stop-color="#000" stop-opacity=".163"/></linearGradient></defs><metadata id="metadata7"/><g id="layer1" transform="translate(-24,-962.36218)"><path id="rect4270" fill="#5aa02c" fill-opacity="1" d="M 2 0 C 0.892 0 0 0.892 0 2 L 0 9 C 0 10.108 0.892 11 2 11 L 8 11 L 8 16 L 12.5 11 L 14 11 C 15.108 11 16 10.108 16 9 L 16 2 C 16 0.892 15.108 0 14 0 L 2 0 z M 6 2 L 10 2 C 10.554 2 11 2.446 11 3 C 11 3.554 10.554 4 10 4 L 9 4 L 9 8 C 9 8.554 8.554 9 8 9 C 7.446 9 7 8.554 7 8 L 7 4 L 6 4 C 5.446 4 5 3.554 5 3 C 5 2.446 5.446 2 6 2 z M 11 7 C 11.554 7 12 7.446 12 8 C 12 8.554 11.554 9 11 9 C 10.446 9 10 8.554 10 8 C 10 7.446 10.446 7 11 7 z" transform="translate(24,962.36218)"/></g></svg>